<svg width="20" height="21" viewBox="0 0 20 21" fill="none" xmlns="http://www.w3.org/2000/svg">
<path d="M5.95 2.01562C8.51792 2.01562 10 4.16796 10 4.16796C10 4.16796 11.485 2.01562 14.05 2.01562C16.705 2.01562 19 4.08562 19 6.96562C19 11.1961 12.5604 15.6353 10.3651 17.5759C10.1582 17.7588 9.84179 17.7588 9.63488 17.5759C7.44056 15.6365 1 11.1959 1 6.96562C1 4.08562 3.295 2.01562 5.95 2.01562Z" fill="white" fill-opacity="0.8"/>
<path d="M1 6.88049C1 4.2186 3.15017 2.01562 5.86486 2.01562C7.98685 2.01562 9.35921 3.37438 10 4.20235C10.6408 3.37438 12.0132 2.01562 14.1351 2.01562C16.8506 2.01562 19 4.21865 19 6.88049C19 8.0455 18.5328 9.20185 17.8534 10.2806C17.1716 11.3632 16.252 12.4059 15.29 13.3533C13.9567 14.6664 12.4757 15.8543 11.4134 16.7063C10.9618 17.0685 10.5859 17.37 10.3293 17.5946C10.1407 17.7595 9.85926 17.7595 9.67075 17.5946C9.41405 17.37 9.03815 17.0685 8.58659 16.7063C7.52431 15.8543 6.04326 14.6664 4.70997 13.3533C3.74802 12.4059 2.82836 11.3632 2.14659 10.2806C1.46724 9.20185 1 8.0455 1 6.88049ZM5.86486 3.01562C3.70929 3.01562 2 4.764 2 6.88049C2 7.78306 2.36553 8.7517 2.99277 9.74771C3.61759 10.7398 4.47833 11.7216 5.41165 12.6408C6.71033 13.9198 8.08423 15.0206 9.13396 15.8617C9.45728 16.1208 9.74985 16.3552 10 16.5626C10.2501 16.3552 10.5427 16.1208 10.866 15.8617C11.9158 15.0206 13.2897 13.9198 14.5883 12.6408C15.5217 11.7216 16.3824 10.7398 17.0072 9.74771C17.6345 8.7517 18 7.78306 18 6.88049C18 4.76396 16.2914 3.01562 14.1351 3.01562C12.0406 3.01562 10.8181 4.71773 10.5033 5.2259C10.2727 5.59812 9.72727 5.59811 9.4967 5.22589C9.1819 4.71772 7.95944 3.01562 5.86486 3.01562Z" fill="#15151A"/>
</svg>
